<svg width="256" height="72" viewBox="0 0 256 72" fill="none" xmlns="http://www.w3.org/2000/svg">
<path d="M84.7014 52.5408C89.6188 52.5408 93.9208 50.082 95.6209 45.1197C95.9524 44.1249 95.4776 43.4646 94.5334 43.4646H92.6901C91.8387 43.4646 91.2739 43.8411 90.8917 44.6448C89.4277 47.5306 87.3933 48.5675 84.8419 48.5675C80.3038 48.5675 77.5135 45.3978 77.5135 40.1067C77.5135 34.8127 80.3993 31.6459 84.7435 31.6459C87.3905 31.6459 89.5654 32.7811 90.9367 35.4759C91.3638 36.2795 91.8808 36.6561 92.735 36.6561H94.5784C95.5225 36.6561 95.9946 36.0435 95.6658 35.1415C93.682 29.752 89.2366 27.6726 84.6986 27.6726C77.8451 27.6726 72.7394 32.7334 72.7394 40.1067C72.7394 47.48 77.609 52.5408 84.7014 52.5408ZM208.407 37.9318C209.02 33.9135 211.762 31.4071 215.496 31.4071C219.231 31.4071 222.021 33.9585 222.35 37.9318H208.407ZM215.69 52.5408C220.04 52.5408 224.39 50.5092 226.517 45.9233C227.037 44.8359 226.565 44.08 225.621 44.08H223.873C223.024 44.08 222.502 44.4565 222.075 45.2152C220.658 47.7189 218.2 48.7614 215.693 48.7614C211.391 48.7614 208.604 45.8306 208.272 41.0565H225.624C226.568 41.0565 227.186 40.5366 227.186 39.5419C226.995 32.1208 222.176 27.6782 215.508 27.6782C208.84 27.6782 203.549 32.5001 203.549 40.1123C203.549 47.7245 208.702 52.5464 215.699 52.5464L215.69 52.5408ZM188.175 40.7221H189.735C190.679 40.7221 191.199 40.2022 191.342 39.2075C192.244 32.8205 195.981 31.9747 199.957 32.1629C200.809 32.2023 201.506 31.5504 201.506 30.6961V29.2321C201.506 28.288 201.031 27.7176 200.089 27.6726C196.571 27.5406 193.433 28.746 191.617 32.1657C191.516 32.3512 191.238 32.3034 191.213 32.0927L190.921 29.5131C190.828 28.569 190.308 28.0969 189.361 28.0969H182.224C181.389 28.0969 180.709 28.7741 180.709 29.6115V30.4151C180.709 31.2497 181.386 31.9297 182.224 31.9297H185.155C185.989 31.9297 186.669 32.6069 186.669 33.4443V39.2103C186.669 40.0449 187.346 40.7249 188.184 40.7249H188.175V40.7221ZM181.797 52.0687H196.591C197.535 52.0687 198.106 51.5011 198.106 50.5541V49.7505C198.106 48.8063 197.538 48.2359 196.591 48.2359H192.809C191.865 48.2359 191.294 47.6683 191.294 46.7213V44.1193C191.294 43.1752 190.727 42.6047 189.78 42.6047H188.172C187.228 42.6047 186.658 43.1724 186.658 44.1193V46.7213C186.658 47.6655 186.09 48.2359 185.143 48.2359H181.788C180.844 48.2359 180.274 48.8035 180.274 49.7505V50.5541C180.274 51.4983 180.841 52.0687 181.788 52.0687H181.797ZM158.963 37.9346C159.576 33.9163 162.318 31.4099 166.052 31.4099C169.787 31.4099 172.577 33.9613 172.906 37.9346H158.963ZM166.244 52.5436C170.593 52.5436 174.943 50.512 177.07 45.9261C177.59 44.8387 177.118 44.0828 176.174 44.0828H174.426C173.575 44.0828 173.055 44.4593 172.628 45.218C171.212 47.7217 168.753 48.7642 166.246 48.7642C161.944 48.7642 159.157 45.8334 158.825 41.0593H176.174C177.118 41.0593 177.736 40.5394 177.736 39.5447C177.545 32.1236 172.726 27.6811 166.061 27.6811C159.393 27.6811 154.102 32.5029 154.102 40.1151C154.102 47.7273 159.255 52.5492 166.252 52.5492L166.244 52.5436ZM111.553 52.5436C118.643 52.5436 123.704 47.2974 123.704 40.1095C123.704 32.9216 118.643 27.6754 111.553 27.6754C104.464 27.6754 99.4031 33.0172 99.4031 40.1095C99.4031 41.7646 99.6869 43.6079 100.535 45.6395C100.963 46.6342 101.766 46.7747 102.618 46.1593L103.989 45.1646C104.7 44.6448 104.885 44.0294 104.649 43.133C104.273 41.9528 104.174 40.9103 104.174 40.014C104.174 35.0516 107.153 31.6459 111.548 31.6459C115.942 31.6459 118.921 35.001 118.921 40.1067C118.921 45.2124 115.99 48.5675 111.64 48.5675C110.126 48.5675 108.71 48.2837 107.007 47.0051C106.296 46.4375 105.636 46.3448 104.88 46.9124L103.84 47.6683C102.989 48.2809 102.896 49.1323 103.697 49.7954C106.155 51.7793 108.991 52.5379 111.545 52.5379H111.553V52.5436ZM129.703 52.0687H131.265C132.1 52.0687 132.78 51.3915 132.78 50.5541V39.2581C132.78 34.4868 135.331 31.6459 139.304 31.6459C142.896 31.6459 144.978 34.0119 144.978 38.3589V50.5569C144.978 51.3915 145.655 52.0715 146.492 52.0715H148.1C148.934 52.0715 149.614 51.3943 149.614 50.5569V37.603C149.614 31.2216 146.352 27.6782 140.822 27.6782C137.057 27.6782 134.831 29.2181 133.17 31.3649C133.044 31.5279 132.788 31.438 132.788 31.2356V20.9653C132.777 20.1279 132.103 19.4507 131.268 19.4507H129.706C128.871 19.4507 128.191 20.1279 128.191 20.9653V50.5569C128.188 51.3887 128.865 52.0687 129.703 52.0687Z" fill="#3A594D"/>
<mask id="mask0_55_28" style="mask-type:luminance" maskUnits="userSpaceOnUse" x="28" y="19" width="34" height="34">
<path d="M61.9098 19.4507H28.8141V52.5464H61.9098V19.4507Z" fill="white"/>
</mask>
<g mask="url(#mask0_55_28)">
<path fill-rule="evenodd" clip-rule="evenodd" d="M39.5368 39.157C40.4275 39.157 42.2006 39.1093 44.6481 38.1005C47.503 36.9259 53.1819 34.7932 57.2761 32.6014C60.1422 31.07 61.3955 29.0412 61.3955 26.3127C61.3955 22.5249 58.3242 19.4536 54.5363 19.4536H38.6629C33.22 19.4536 28.8112 23.8652 28.8112 29.3053C28.8112 34.7454 32.9446 39.157 39.5368 39.157Z" fill="#3A594D"/>
<path fill-rule="evenodd" clip-rule="evenodd" d="M42.2232 45.9403C42.2232 43.2737 43.8276 40.8684 46.292 39.8455L51.2909 37.7718C56.346 35.6728 61.9125 39.3903 61.9125 44.8641C61.9125 49.1044 58.4731 52.5437 54.2329 52.5409H48.8209C45.1764 52.5381 42.2232 49.5849 42.2232 45.9403Z" fill="#BD8FC0"/>
<path d="M34.4958 40.4553C31.3599 40.4553 28.8169 42.9983 28.8169 46.1343V46.8705C28.8169 50.0064 31.3599 52.5494 34.4958 52.5494C37.6317 52.5494 40.1747 50.0064 40.1747 46.8705V46.1343C40.1747 42.9983 37.6317 40.4553 34.4958 40.4553Z" fill="#EE765C"/>
</g>
</svg>
