<svg width="442" height="476" viewBox="0 0 442 476" fill="none" xmlns="http://www.w3.org/2000/svg">
<path fill-rule="evenodd" clip-rule="evenodd" d="M13.8347 148.776C19.1389 148.776 23.4387 153.076 23.4387 158.38L23.4387 213.26L4.23073 213.26L4.23073 158.38C4.23073 153.076 8.53058 148.776 13.8347 148.776Z" fill="black"/>
<g filter="url(#filter0_f_22_4)">
<path fill-rule="evenodd" clip-rule="evenodd" d="M5.63116 159.063C5.25366 154.533 8.62049 150.554 13.1512 150.176L67.8417 145.619L69.2087 162.027L14.5183 166.583C9.98755 166.961 6.00866 163.594 5.63116 159.063Z" fill="#949494"/>
</g>
<path fill-rule="evenodd" clip-rule="evenodd" d="M8.80461 166.561C4.28616 163.783 2.87527 157.868 5.65331 153.35L34.3966 106.599L50.7594 116.659L22.0161 163.41C19.238 167.928 13.3231 169.339 8.80461 166.561Z" fill="black"/>
<path fill-rule="evenodd" clip-rule="evenodd" d="M4.84385 155.003C6.7087 150.038 12.2458 147.524 17.2113 149.389L68.5875 168.684L61.8343 186.666L10.4581 167.371C5.49257 165.506 2.97899 159.969 4.84385 155.003Z" fill="black"/>
<path fill-rule="evenodd" clip-rule="evenodd" d="M167.353 220.187C165.372 225.108 159.777 227.491 154.857 225.51L103.948 205.013L111.122 187.195L162.031 207.691C166.951 209.672 169.334 215.267 167.353 220.187Z" fill="black"/>
<path fill-rule="evenodd" clip-rule="evenodd" d="M148.892 217.602C148.339 212.327 152.167 207.602 157.442 207.049L212.022 201.323L214.026 220.427L159.446 226.152C154.171 226.705 149.446 222.878 148.892 217.602Z" fill="black"/>
<path fill-rule="evenodd" clip-rule="evenodd" d="M162.075 225.491C157.165 227.497 151.559 225.142 149.553 220.232L128.802 169.426L146.584 162.164L167.335 212.969C169.34 217.879 166.986 223.486 162.075 225.491Z" fill="black"/>
<path fill-rule="evenodd" clip-rule="evenodd" d="M158.447 206.996C163.751 206.998 168.05 211.3 168.048 216.604L168.029 271.484L148.821 271.477L148.84 216.597C148.842 211.293 153.143 206.995 158.447 206.996Z" fill="black"/>
<g filter="url(#filter1_f_22_4)">
<path fill-rule="evenodd" clip-rule="evenodd" d="M291.391 134.42C291.782 138.949 288.427 142.938 283.898 143.329L229.221 148.049L227.805 131.646L282.482 126.926C287.011 126.535 291 129.89 291.391 134.42Z" fill="#949494"/>
</g>
<g filter="url(#filter2_f_22_4)">
<path fill-rule="evenodd" clip-rule="evenodd" d="M275.46 132.296C277.024 128.027 281.753 125.834 286.022 127.398L337.552 146.278L331.888 161.737L280.358 142.857C276.089 141.293 273.896 136.565 275.46 132.296Z" fill="#949494"/>
</g>
<g filter="url(#filter3_f_22_4)">
<path fill-rule="evenodd" clip-rule="evenodd" d="M278.887 142.145C275.011 139.769 273.795 134.7 276.172 130.824L304.859 84.0394L318.895 92.6456L290.207 139.431C287.831 143.306 282.762 144.522 278.887 142.145Z" fill="#949494"/>
</g>
<g filter="url(#filter4_f_22_4)">
<path fill-rule="evenodd" clip-rule="evenodd" d="M283.193 126.896C287.739 126.897 291.423 130.584 291.422 135.13L291.403 190.01L274.939 190.005L274.958 135.125C274.959 130.578 278.646 126.894 283.193 126.896Z" fill="#949494"/>
</g>
<g filter="url(#filter5_f_22_4)">
<path fill-rule="evenodd" clip-rule="evenodd" d="M5.73016 409.206C5.25585 404.685 8.53682 400.635 13.0584 400.16L67.6389 394.435L69.3566 410.809L14.7761 416.534C10.2545 417.009 6.20448 413.728 5.73016 409.206Z" fill="#949494"/>
</g>
<path fill-rule="evenodd" clip-rule="evenodd" d="M13.9205 417.951C8.61638 417.953 4.31509 413.655 4.31332 408.35L4.29499 353.47L23.503 353.464L23.5213 408.344C23.5231 413.648 19.2247 417.949 13.9205 417.951Z" fill="black"/>
<path fill-rule="evenodd" clip-rule="evenodd" d="M4.89422 405.058C6.71102 400.074 12.2236 397.507 17.2069 399.324L68.7671 418.122L62.1878 436.168L10.6276 417.37C5.64435 415.554 3.07741 410.041 4.89422 405.058Z" fill="black"/>
<g filter="url(#filter6_f_22_4)">
<path fill-rule="evenodd" clip-rule="evenodd" d="M436.054 431.729C434.507 436.004 429.787 438.215 425.512 436.668L373.908 417.992L379.51 402.511L431.115 421.187C435.39 422.734 437.601 427.454 436.054 431.729Z" fill="#949494"/>
</g>
<path fill-rule="evenodd" clip-rule="evenodd" d="M428.317 438.531C423.013 438.533 418.711 434.235 418.71 428.93L418.691 374.051L437.899 374.044L437.918 428.924C437.919 434.228 433.621 438.53 428.317 438.531Z" fill="black"/>
<path fill-rule="evenodd" clip-rule="evenodd" d="M437.841 427.714C438.511 432.976 434.788 437.784 429.527 438.454L375.086 445.386L372.66 426.332L427.101 419.4C432.362 418.73 437.171 422.453 437.841 427.714Z" fill="black"/>
<path fill-rule="evenodd" clip-rule="evenodd" d="M167.475 466.352C165.67 471.34 160.163 473.92 155.176 472.115L103.571 453.439L110.108 435.377L161.712 454.053C166.7 455.858 169.28 461.365 167.475 466.352Z" fill="black"/>
<path fill-rule="evenodd" clip-rule="evenodd" d="M158.447 472.688C153.143 472.69 148.842 468.391 148.84 463.087L148.821 408.207L168.029 408.201L168.048 463.081C168.05 468.385 163.751 472.686 158.447 472.688Z" fill="black"/>
<path fill-rule="evenodd" clip-rule="evenodd" d="M148.905 464.199C148.289 458.931 152.06 454.161 157.328 453.545L211.837 447.171L214.068 466.249L159.559 472.623C154.291 473.239 149.521 469.468 148.905 464.199Z" fill="black"/>
<g filter="url(#filter7_f_22_4)">
<path fill-rule="evenodd" clip-rule="evenodd" d="M292.745 376.412C293.262 380.929 290.02 385.01 285.503 385.527L230.98 391.772L229.106 375.415L283.63 369.17C288.147 368.653 292.228 371.895 292.745 376.412Z" fill="#949494"/>
</g>
<g filter="url(#filter8_f_22_4)">
<path fill-rule="evenodd" clip-rule="evenodd" d="M284.569 385.581C280.023 385.582 276.336 381.898 276.335 377.351L276.316 322.472L292.78 322.466L292.799 377.346C292.8 381.892 289.116 385.579 284.569 385.581Z" fill="#949494"/>
</g>
<g filter="url(#filter9_f_22_4)">
<path fill-rule="evenodd" clip-rule="evenodd" d="M276.818 374.568C278.354 370.289 283.068 368.065 287.347 369.601L339.002 388.137L333.441 403.633L281.786 385.097C277.507 383.561 275.283 378.848 276.818 374.568Z" fill="#949494"/>
</g>
<g filter="url(#filter10_f_22_4)">
<path fill-rule="evenodd" clip-rule="evenodd" d="M362.518 5.64257C367.057 8.3877 368.511 14.2923 365.765 18.8308L337.363 65.7892L320.927 55.8482L349.33 8.88979C352.075 4.35127 357.98 2.89744 362.518 5.64257Z" fill="#949494"/>
</g>
<path fill-rule="evenodd" clip-rule="evenodd" d="M353.937 4.96078C358.852 2.96677 364.453 5.33476 366.447 10.2498L387.078 61.1042L369.279 68.3251L348.648 17.4708C346.654 12.5557 349.022 6.95478 353.937 4.96078Z" fill="black"/>
<path fill-rule="evenodd" clip-rule="evenodd" d="M77.3256 42.4693C76.7869 37.1926 80.6278 32.4783 85.9045 31.9396L140.501 26.3656L142.452 45.4743L87.8554 51.0482C82.5787 51.587 77.8643 47.7461 77.3256 42.4693Z" fill="black"/>
<path fill-rule="evenodd" clip-rule="evenodd" d="M367.109 12.9549C367.609 18.2354 363.734 22.9215 358.453 23.4215L303.817 28.5952L302.007 9.47276L356.642 4.29909C361.923 3.79905 366.609 7.6744 367.109 12.9549Z" fill="black"/>
<path fill-rule="evenodd" clip-rule="evenodd" d="M91.8503 33.2762C96.3889 36.0213 97.8427 41.9259 95.0976 46.4644L66.6947 93.4228L50.2593 83.4818L78.6621 36.5234C81.4072 31.9849 87.3118 30.531 91.8503 33.2762Z" fill="black"/>
<path fill-rule="evenodd" clip-rule="evenodd" d="M83.2694 32.5944C88.1845 30.6004 93.7854 32.9684 95.7794 37.8834L116.411 88.7378L98.6116 95.9587L77.9804 45.1044C75.9864 40.1893 78.3544 34.5884 83.2694 32.5944Z" fill="black"/>
<path fill-rule="evenodd" clip-rule="evenodd" d="M428.3 178.689C422.996 178.689 418.696 182.988 418.696 188.293L418.696 243.172L437.904 243.172L437.904 188.293C437.904 182.988 433.604 178.689 428.3 178.689Z" fill="black"/>
<g filter="url(#filter11_f_22_4)">
<path fill-rule="evenodd" clip-rule="evenodd" d="M437.318 191.596C435.493 196.577 429.976 199.135 424.996 197.31L373.466 178.431L380.073 160.395L431.604 179.275C436.584 181.099 439.142 186.616 437.318 191.596Z" fill="#949494"/>
</g>
<path fill-rule="evenodd" clip-rule="evenodd" d="M432.137 197.097C427.274 199.216 421.614 196.992 419.496 192.129L397.572 141.819L415.18 134.145L437.104 184.456C439.223 189.318 436.999 194.978 432.137 197.097Z" fill="black"/>
<path fill-rule="evenodd" clip-rule="evenodd" d="M437.851 187.291C438.405 192.566 434.577 197.291 429.301 197.844L374.721 203.568L372.717 184.465L427.298 178.741C432.573 178.188 437.298 182.016 437.851 187.291Z" fill="black"/>
<defs>
<filter id="filter0_f_22_4" x="1.60229" y="141.619" width="71.6064" height="28.9929" filterUnits="userSpaceOnUse" color-interpolation-filters="sRGB">
<feFlood flood-opacity="0" result="BackgroundImageFix"/>
<feBlend mode="normal" in="SourceGraphic" in2="BackgroundImageFix" result="shape"/>
<feGaussianBlur stdDeviation="2" result="effect1_foregroundBlur_22_4"/>
</filter>
<filter id="filter1_f_22_4" x="223.805" y="122.895" width="71.6171" height="29.154" filterUnits="userSpaceOnUse" color-interpolation-filters="sRGB">
<feFlood flood-opacity="0" result="BackgroundImageFix"/>
<feBlend mode="normal" in="SourceGraphic" in2="BackgroundImageFix" result="shape"/>
<feGaussianBlur stdDeviation="2" result="effect1_foregroundBlur_22_4"/>
</filter>
<filter id="filter2_f_22_4" x="270.955" y="122.893" width="70.5965" height="42.8433" filterUnits="userSpaceOnUse" color-interpolation-filters="sRGB">
<feFlood flood-opacity="0" result="BackgroundImageFix"/>
<feBlend mode="normal" in="SourceGraphic" in2="BackgroundImageFix" result="shape"/>
<feGaussianBlur stdDeviation="2" result="effect1_foregroundBlur_22_4"/>
</filter>
<filter id="filter3_f_22_4" x="270.956" y="80.0394" width="51.9384" height="67.3214" filterUnits="userSpaceOnUse" color-interpolation-filters="sRGB">
<feFlood flood-opacity="0" result="BackgroundImageFix"/>
<feBlend mode="normal" in="SourceGraphic" in2="BackgroundImageFix" result="shape"/>
<feGaussianBlur stdDeviation="2" result="effect1_foregroundBlur_22_4"/>
</filter>
<filter id="filter4_f_22_4" x="270.939" y="122.896" width="24.4829" height="71.1148" filterUnits="userSpaceOnUse" color-interpolation-filters="sRGB">
<feFlood flood-opacity="0" result="BackgroundImageFix"/>
<feBlend mode="normal" in="SourceGraphic" in2="BackgroundImageFix" result="shape"/>
<feGaussianBlur stdDeviation="2" result="effect1_foregroundBlur_22_4"/>
</filter>
<filter id="filter5_f_22_4" x="1.68457" y="390.435" width="71.672" height="30.1452" filterUnits="userSpaceOnUse" color-interpolation-filters="sRGB">
<feFlood flood-opacity="0" result="BackgroundImageFix"/>
<feBlend mode="normal" in="SourceGraphic" in2="BackgroundImageFix" result="shape"/>
<feGaussianBlur stdDeviation="2" result="effect1_foregroundBlur_22_4"/>
</filter>
<filter id="filter6_f_22_4" x="369.908" y="398.511" width="70.6401" height="42.6508" filterUnits="userSpaceOnUse" color-interpolation-filters="sRGB">
<feFlood flood-opacity="0" result="BackgroundImageFix"/>
<feBlend mode="normal" in="SourceGraphic" in2="BackgroundImageFix" result="shape"/>
<feGaussianBlur stdDeviation="2" result="effect1_foregroundBlur_22_4"/>
</filter>
<filter id="filter7_f_22_4" x="225.106" y="365.116" width="71.693" height="30.6561" filterUnits="userSpaceOnUse" color-interpolation-filters="sRGB">
<feFlood flood-opacity="0" result="BackgroundImageFix"/>
<feBlend mode="normal" in="SourceGraphic" in2="BackgroundImageFix" result="shape"/>
<feGaussianBlur stdDeviation="2" result="effect1_foregroundBlur_22_4"/>
</filter>
<filter id="filter8_f_22_4" x="272.316" y="318.466" width="24.4823" height="71.1147" filterUnits="userSpaceOnUse" color-interpolation-filters="sRGB">
<feFlood flood-opacity="0" result="BackgroundImageFix"/>
<feBlend mode="normal" in="SourceGraphic" in2="BackgroundImageFix" result="shape"/>
<feGaussianBlur stdDeviation="2" result="effect1_foregroundBlur_22_4"/>
</filter>
<filter id="filter9_f_22_4" x="272.332" y="365.114" width="70.6695" height="42.5187" filterUnits="userSpaceOnUse" color-interpolation-filters="sRGB">
<feFlood flood-opacity="0" result="BackgroundImageFix"/>
<feBlend mode="normal" in="SourceGraphic" in2="BackgroundImageFix" result="shape"/>
<feGaussianBlur stdDeviation="2" result="effect1_foregroundBlur_22_4"/>
</filter>
<filter id="filter10_f_22_4" x="316.927" y="0.254883" width="54.226" height="69.5343" filterUnits="userSpaceOnUse" color-interpolation-filters="sRGB">
<feFlood flood-opacity="0" result="BackgroundImageFix"/>
<feBlend mode="normal" in="SourceGraphic" in2="BackgroundImageFix" result="shape"/>
<feGaussianBlur stdDeviation="2" result="effect1_foregroundBlur_22_4"/>
</filter>
<filter id="filter11_f_22_4" x="369.466" y="156.395" width="72.4409" height="45.504" filterUnits="userSpaceOnUse" color-interpolation-filters="sRGB">
<feFlood flood-opacity="0" result="BackgroundImageFix"/>
<feBlend mode="normal" in="SourceGraphic" in2="BackgroundImageFix" result="shape"/>
<feGaussianBlur stdDeviation="2" result="effect1_foregroundBlur_22_4"/>
</filter>
</defs>
</svg>
