<svg width="256" height="73" viewBox="0 0 256 73" fill="none" xmlns="http://www.w3.org/2000/svg">
<path d="M102.748 35.9517C102.748 42.0833 106.686 46.3585 112.143 46.3585C117.599 46.3585 121.537 42.0833 121.537 35.9517C121.537 29.8202 117.599 25.5449 112.143 25.5449C106.686 25.5449 102.748 29.8202 102.748 35.9517ZM117.937 35.9517C117.937 40.3395 115.546 43.1802 112.143 43.1802C108.739 43.1802 106.348 40.3395 106.348 35.9517C106.348 31.564 108.739 28.7232 112.143 28.7232C115.546 28.7232 117.937 31.564 117.937 35.9517Z" fill="black"/>
<path d="M131.675 46.3585C135.81 46.3585 138.172 42.8709 138.172 38.68C138.172 34.4892 135.81 31.0015 131.675 31.0015C129.763 31.0015 128.356 31.7609 127.428 32.8578V31.2827H124.053V51.1119H127.428V44.5022C128.356 45.5991 129.763 46.3585 131.675 46.3585ZM127.344 38.2581C127.344 35.4736 128.919 33.9547 131 33.9547C133.447 33.9547 134.769 35.8674 134.769 38.68C134.769 41.4927 133.447 43.4053 131 43.4053C128.919 43.4053 127.344 41.8583 127.344 39.13V38.2581Z" fill="black"/>
<path d="M147.307 46.3585C150.26 46.3585 152.594 44.8116 153.635 42.2239L150.738 41.127C150.288 42.6458 148.966 43.4896 147.307 43.4896C145.141 43.4896 143.622 41.9427 143.369 39.4113H153.719V38.2862C153.719 34.236 151.441 31.0015 147.166 31.0015C142.891 31.0015 140.134 34.3485 140.134 38.68C140.134 43.2365 143.088 46.3585 147.307 46.3585ZM147.138 33.8422C149.275 33.8422 150.288 35.2486 150.316 36.8799H143.538C144.044 34.8829 145.394 33.8422 147.138 33.8422Z" fill="black"/>
<path d="M156.252 46.0492H159.627V37.3862C159.627 35.2767 161.174 34.1516 162.693 34.1516C164.549 34.1516 165.281 35.4736 165.281 37.3018V46.0492H168.656V36.3174C168.656 33.1391 166.799 31.0015 163.705 31.0015C161.793 31.0015 160.471 31.8734 159.627 32.8578V31.2827H156.252V46.0492Z" fill="black"/>
<path d="M178.541 25.8542L170.891 46.0491H174.463L176.178 41.4363H184.898L186.641 46.0491H190.27L182.619 25.8542H178.541ZM180.51 29.8482L183.716 38.2862H177.36L180.51 29.8482Z" fill="black"/>
<path d="M196.064 25.9128H192.464V46.1077H196.064V25.9128Z" fill="black"/>
<path d="M94.5002 33.2714C95.351 30.7178 95.058 27.9203 93.6974 25.5976C91.6512 22.0349 87.5377 20.202 83.5203 21.0645C81.7331 19.0511 79.1654 17.9061 76.4734 17.9225C72.3669 17.9132 68.7234 20.5571 67.46 24.4643C64.822 25.0046 62.5449 26.6558 61.2124 28.9962C59.151 32.5495 59.6209 37.0286 62.375 40.0757C61.5242 42.6293 61.8172 45.4268 63.1778 47.7495C65.224 51.3122 69.3375 53.1451 73.3549 52.2826C75.1409 54.296 77.7098 55.441 80.4018 55.4234C84.5106 55.4339 88.1553 52.7877 89.4186 48.8769C92.0567 48.3367 94.3338 46.6854 95.6662 44.3451C97.7253 40.7917 97.2542 36.3161 94.5013 33.2691L94.5002 33.2714ZM80.4041 52.9729C78.7599 52.9752 77.1672 52.3998 75.905 51.3462C75.9625 51.3157 76.0621 51.2607 76.1265 51.2208L83.5941 46.9081C83.9762 46.6913 84.2106 46.2846 84.2082 45.8451V35.3176L87.3642 37.14C87.3982 37.1564 87.4205 37.1892 87.4252 37.2267V45.9448C87.4205 49.8215 84.2809 52.9647 80.4041 52.9729ZM65.3048 46.5237C64.481 45.101 64.1845 43.4333 64.4669 41.8148C64.522 41.8477 64.6193 41.9074 64.6884 41.9473L72.156 46.26C72.5345 46.4815 73.0033 46.4815 73.383 46.26L82.4995 40.9957V44.6404C82.5019 44.6779 82.4843 44.7142 82.455 44.7377L74.9065 49.0961C71.5442 51.0321 67.2503 49.8813 65.306 46.5237H65.3048ZM63.3395 30.2232C64.1599 28.7981 65.4549 27.7082 66.9971 27.1422C66.9971 27.2066 66.9936 27.3203 66.9936 27.4V36.0266C66.9913 36.4649 67.2257 36.8716 67.6065 37.0884L76.723 42.3516L73.567 44.174C73.5354 44.195 73.4955 44.1986 73.4604 44.1833L65.9107 39.8214C62.5555 37.8783 61.4046 33.5855 63.3383 30.2244L63.3395 30.2232ZM89.2698 36.2575L80.1533 30.9932L83.3093 29.172C83.341 29.1509 83.3808 29.1474 83.416 29.1626L90.9656 33.521C94.3267 35.4629 95.4787 39.7628 93.5368 43.1239C92.7153 44.5466 91.4215 45.6365 89.8804 46.2037V37.3193C89.8839 36.881 89.6507 36.4755 89.271 36.2575H89.2698ZM92.4106 31.5299C92.3555 31.4959 92.2583 31.4373 92.1891 31.3975L84.7215 27.0848C84.343 26.8633 83.8742 26.8633 83.4945 27.0848L74.378 32.3491V28.7044C74.3756 28.6669 74.3932 28.6305 74.4225 28.6071L81.971 24.2522C85.3333 22.3126 89.6319 23.467 91.5703 26.8304C92.3895 28.2508 92.686 29.9138 92.4083 31.5299H92.4106ZM72.6623 38.026L69.5051 36.2036C69.4711 36.1872 69.4488 36.1544 69.4441 36.1169V27.3988C69.4465 23.5174 72.5955 20.3719 76.4769 20.3742C78.1188 20.3742 79.708 20.9508 80.9701 22.0009C80.9127 22.0314 80.8143 22.0864 80.7486 22.1263L73.2811 26.439C72.899 26.6558 72.6646 27.0613 72.667 27.5008L72.6623 38.0236V38.026ZM74.3768 34.3297L78.4376 31.9846L82.4984 34.3285V39.0174L78.4376 41.3613L74.3768 39.0174V34.3297Z" fill="black"/>
</svg>
